<?xml version="1.0" encoding="utf-8"?>
<svg viewBox="126.4 99.119 201.9 196.986" xmlns="http://www.w3.org/2000/svg">
  <rect x="126.4" y="99.119" class="st0" width="201.9" height="196.986" style="fill: rgb(255, 0, 0);"/>
  <path class="st1" d="M 204.98 219.911 L 191.25 219.911 L 191.25 173.895 L 204.98 173.895 L 204.98 219.911 Z M 227.27 207.817 L 227.27 173.895 L 213.54 173.895 L 213.54 219.911 L 236.476 219.911 L 236.476 207.698 L 227.27 207.698 L 227.27 207.817 Z M 255.939 207.817 L 255.939 173.895 L 242.21 173.895 L 242.21 219.911 L 265.146 219.911 L 265.146 207.698 L 255.939 207.698 L 255.939 207.817 Z M 306.213 219.911 L 292.241 219.911 L 291.232 213.568 L 284.004 213.568 L 282.994 219.911 L 269.144 219.911 L 278.754 173.895 L 295.714 173.895 L 306.213 219.911 Z M 290.868 205.019 L 288.486 191.821 L 287.112 191.821 L 284.73 205.019 L 290.868 205.019 Z M 185.032 207.225 C 185.032 203.207 183.659 199.425 180.55 196.864 C 182.528 194.185 183.781 190.875 183.781 187.329 C 183.781 180.513 178.935 175.353 172.191 174.289 C 170.576 174.053 169.324 173.935 166.941 173.935 L 148.488 173.935 L 148.488 219.951 L 172.029 219.951 C 179.298 219.911 185.032 214.277 185.032 207.225 Z M 170.697 188.275 C 170.697 189.733 169.445 190.954 167.951 190.954 L 162.217 190.954 L 162.217 185.596 L 167.83 185.596 C 169.445 185.596 170.697 186.818 170.697 188.275 Z M 168.436 202.34 C 169.93 202.34 171.182 203.561 171.182 205.019 C 171.182 206.477 169.93 207.698 168.436 207.698 L 162.217 207.698 L 162.217 202.222 L 168.436 202.222 L 168.436 202.34 Z" style="fill: rgb(255, 255, 0);"/>
</svg>